<svg width="18" height="24" viewBox="0 0 18 24" fill="none" xmlns="http://www.w3.org/2000/svg">
<path d="M7.01132 17V12H11.0178V18L10.0162 17H7.01132Z" fill="#FFC107" stroke="#FFC107"/>
<path d="M10.8936 11.8819H7.10827V16.7995H9.35735H9.40156C10.0076 16.8105 10.5252 17.3714 10.8936 17.8073V16.7995V15.4735V11.8819ZM9.81785 0.32183L9.82337 0.327347L9.82706 0.331026L17.6205 7.67792C17.8692 7.91147 17.9963 8.22779 17.9963 8.5441H18C18 11.6907 18 14.8372 18 17.982C18 18.6458 17.4603 19.1847 16.7953 19.1847H16.7511H15.6091H12.0872H5.91281C5.25338 19.1847 4.71736 18.6514 4.71736 17.9912V10.6866C4.71736 10.0282 5.25154 9.49303 5.91281 9.49303H12.0872C12.7466 9.49303 13.2826 10.0263 13.2826 10.6866V16.7976H15.6091V9.05351L9.00184 2.82658L2.39091 9.05535V21.6122H13.9366H15.6091H16.8009C17.4621 21.6122 17.9982 22.1473 17.9982 22.8076V23.9974H16.9169L16.8985 23.9992C16.8322 24.0011 16.764 23.9992 16.6922 23.9974H16.4288H1.19546C0.536022 23.9974 0 23.4641 0 22.8039V8.5441C0 8.17262 0.169464 7.84159 0.436554 7.62275L8.18399 0.32367C8.64634 -0.11034 9.36287 -0.104823 9.81785 0.32183Z" fill="#212427"/>
</svg>
